<?xml version="1.0" encoding="UTF-8" standalone="no"?>
<svg
   xmlns:svg="http://www.w3.org/2000/svg"
   xmlns="http://www.w3.org/2000/svg"
   id="svg2"
   viewBox="0 0 230 230"
   width="230"
   height="230"
   version="1.1">
  <rect x="3" y="3" width="224" height="224" rx="47" fill="#0055CC"/>
  <path
     id="text4"
     style="font-size:197px;font-family:'EnglishScriptEF DemiBold';fill:#fff"
     aria-label="L"
     transform="translate(0, 40)"
     d="m 222.16704,16.753 c 0,-5.516 -5.122,-9.456 -10.441,-9.456 -17.336,0 -40.779,17.927 -52.599,29.55 -11.82,11.623 -23.837,24.822 -32.702,38.809 h -4.334 c -18.518,0 -51.614001,-4.925 -51.614001,-29.747 0,-19.7 17.927,-32.308 35.066001,-37.233 7.683,-2.364 15.957,-3.349 24.034,-3.349 9.062,0 17.533,1.182 26.398,3.152 l 0.788,-2.167 c -9.456,-3.152 -19.306,-4.531 -29.156,-4.531 -8.274,0 -16.548,1.182 -24.428,3.743 -17.927001,5.516 -36.642001,19.7 -36.642001,40.188 0,28.171 36.445001,33.096 57.524001,33.096 -11.229,15.563 -20.488,32.505 -33.490001,46.689 -3.546,3.743 -5.319,5.713 -10.047,8.077 -13.199,-5.122 -27.186,-9.259 -41.37,-9.259 -7.486,0 -30.3379999,2.955 -30.3379999,13.79 0,9.062 17.9269999,9.456 23.8369999,9.456 11.82,0 26.004,-2.561 37.233,-6.304 8.668,4.137 24.625,6.501 34.278001,6.501 17.336,0 31.914,-8.668 45.507,-18.518 4.531,-3.349 8.668,-6.501 12.608,-10.441 l -1.97,-2.167 c -11.229,10.441 -29.353,23.64 -45.31,23.64 -9.259,0 -20.488001,-2.167 -29.156001,-5.319 23.049001,-11.032 31.717001,-17.139 46.098001,-38.021 4.531,-6.501 8.668,-12.805 12.214,-19.7 15.366,-3.94 28.762,-8.865 42.355,-17.336 12.805,-8.077 35.657,-26.201 35.657,-43.143 z m -3.349,0 c 0,14.972 -22.655,32.702 -33.884,39.991 -12.017,7.88 -24.822,12.411 -38.415,16.942 2.955,-5.122 6.304,-10.047 9.85,-14.775 10.835,-14.972 35.263,-48.659 55.554,-48.659 3.743,0 6.895,2.561 6.895,6.501 z M 64.370039,139.484 c -8.471,2.955 -22.852,4.925 -31.717,4.925 -3.743,0 -19.7,-0.394 -19.7,-6.304 0,-5.713 11.426,-7.092 15.366,-7.092 11.032,0 25.807,4.531 36.051,8.471 z" />
</svg>
